<?xml version="1.0" encoding="utf-8"?>
<!-- Generator: Fusion 360, Shaper Origin Export Add-In, Version 1.5.0  -->
<svg enable-background="new 0 0 2.2144802 4.4" height="4.4cm" shaper:fusionaddin="version:1.5.0" version="1.1" viewBox="0 0 2.2144802 4.4" width="2.2144802cm" x="0cm" xml:space="preserve" xmlns="http://www.w3.org/2000/svg" xmlns:shaper="http://www.shapertools.com/namespaces/shaper" xmlns:xlink="http://www.w3.org/1999/xlink" y="0cm"><path d="M-0,-2.2 L-0,-2.2 -0.0300278,-2.1998671 -0.059415,-2.1994688 -0.0881623,-2.1988065 -0.1162708,-2.1978825 -0.1437421,-2.1967 -0.170578,-2.1952628 -0.1967809,-2.1935758 -0.2223535,-2.1916443 -0.2472991,-2.1894745 -0.2716212,-2.1870729 -0.2953237,-2.1844471 -0.318411,-2.1816046 -0.3408878,-2.1785539 -0.3627592,-2.1753037 -0.3840308,-2.1718632 -0.4047082,-2.1682419 -0.4247977,-2.1644498 -0.4443058,-2.160497 -0.4816054,-2.1521514 -0.5166654,-2.1432915 -0.549549,-2.1340058 -0.5803241,-2.1243839 -0.6090636,-2.1145146 -0.6358448,-2.1044845 -0.6607499,-2.0943757 -0.6838658,-2.0842653 -0.7052838,-2.0742232 -0.7250989,-2.0643122 -0.7434091,-2.0545873 -0.760315,-2.0450947 -0.7759191,-2.0358714 -0.790326,-2.026943 -0.803643,-2.0183211 -0.8159815,-2.0100001 -0.8274575,-2.001954 -0.8381921,-1.9941339 -0.8483115,-1.9864673 -0.8672152,-1.9712028 -0.885164,-1.9552151 -0.8940641,-1.9466014 -0.9030434,-1.9373802 -0.9121787,-1.9274134 -0.9215265,-1.9165777 -0.93112,-1.9047723 -0.9409676,-1.8919231 -0.9510558,-1.8779805 -0.9613525,-1.8629162 -0.9718108,-1.846719 -0.9823726,-1.8293916 -0.9929719,-1.8109474 -1.0035358,-1.7914103 -1.0139863,-1.7708146 -1.024241,-1.7492051 -1.034214,-1.7266373 -1.0438178,-1.7031774 -1.0529652,-1.6789011 -1.0615714,-1.6538922 -1.0695573,-1.6282414 -1.0768514,-1.6020445 -1.0833923,-1.5754012 -1.0891299,-1.5484145 -1.0940261,-1.5211893 -1.0980556,-1.4938321 -1.1012064,-1.4664502 -1.10348,-1.4391508 -1.1048909,-1.41204 -1.1054648,-1.3852215 -1.1052364,-1.3587956 -1.1042481,-1.3328575 -1.1025478,-1.3074966 -1.1001876,-1.2827952 -1.0972225,-1.2588273 -1.0937094,-1.2356586 -1.0897058,-1.213345 -1.0852687,-1.1919317 -1.0804529,-1.1714526 -1.07531,-1.1519282 -1.0698859,-1.1333643 -1.0642195,-1.1157507 -1.0583409,-1.099059 -1.0522701,-1.0832423 -1.0460159,-1.0682343 -1.0395749,-1.0539494 -1.0260525,-1.0271075 -1.0114165,-1.0016617 -0.9952756,-0.9764403 -0.9773229,-0.9504543 -0.9676308,-0.936972 -0.9574698,-0.9231036 -0.9358251,-0.8941329 -0.912622,-0.8635029 -0.8881735,-0.8313094 -0.8628597,-0.7977545 -0.8371134,-0.7631149 -0.8113876,-0.7276787 -0.7861165,-0.6916706 -0.7616871,-0.6551999 -0.7384278,-0.6182405 -0.7166012,-0.5806233 -0.6964083,-0.5420518 -0.6869727,-0.5222883 -0.6779976,-0.5021327 -0.6694947,-0.4815249 -0.6614734,-0.4604021 -0.6539407,-0.4386989 -0.6469018,-0.416348 -0.6403599,-0.3932814 -0.6343166,-0.3694306 -0.6287722,-0.3447276 -0.6237256,-0.3191055 -0.619175,-0.2924996 -0.6151177,-0.2648477 -0.6115503,-0.2360912 -0.6084694,-0.2061757 -0.6058711,-0.1750517 -0.6037517,-0.142675 -0.6021076,-0.1090082 -0.6009358,-0.0740204 -0.6002338,-0.0376891 -0.6,0 -0.6,-0 -0.6002338,0.0376891 -0.6009358,0.0740204 -0.6021076,0.1090082 -0.6037517,0.142675 -0.6058711,0.1750517 -0.6084694,0.2061757 -0.6115503,0.2360912 -0.6151177,0.2648477 -0.619175,0.2924996 -0.6237256,0.3191055 -0.6287722,0.3447276 -0.6343166,0.3694306 -0.6403599,0.3932814 -0.6469018,0.416348 -0.6539407,0.4386989 -0.6614734,0.4604021 -0.6694947,0.4815249 -0.6779976,0.5021327 -0.6869727,0.5222883 -0.6964083,0.5420518 -0.7166012,0.5806233 -0.7384278,0.6182405 -0.7616871,0.6551999 -0.7861165,0.6916706 -0.8113876,0.7276787 -0.8371134,0.7631149 -0.8628597,0.7977545 -0.8881735,0.8313094 -0.912622,0.8635029 -0.9358251,0.8941329 -0.9574698,0.9231036 -0.9676308,0.936972 -0.9773229,0.9504543 -0.9952756,0.9764403 -1.0114165,1.0016617 -1.0260525,1.0271075 -1.0395749,1.0539494 -1.0460159,1.0682343 -1.0522701,1.0832423 -1.0583409,1.099059 -1.0642195,1.1157507 -1.0698859,1.1333643 -1.07531,1.1519282 -1.0804529,1.1714526 -1.0852687,1.1919317 -1.0897058,1.213345 -1.0937094,1.2356586 -1.0972225,1.2588273 -1.1001876,1.2827952 -1.1025478,1.3074966 -1.1042481,1.3328575 -1.1052364,1.3587956 -1.1054648,1.3852215 -1.1048909,1.41204 -1.10348,1.4391508 -1.1012064,1.4664502 -1.0980556,1.4938321 -1.0940261,1.5211893 -1.0891299,1.5484145 -1.0833923,1.5754012 -1.0768514,1.6020445 -1.0695573,1.6282414 -1.0615714,1.6538922 -1.0529652,1.6789011 -1.0438178,1.7031774 -1.034214,1.7266373 -1.024241,1.7492051 -1.0139863,1.7708146 -1.0035358,1.7914103 -0.9929719,1.8109474 -0.9823726,1.8293916 -0.9718108,1.846719 -0.9613525,1.8629162 -0.9510558,1.8779805 -0.9409676,1.8919231 -0.93112,1.9047723 -0.9215265,1.9165777 -0.9121787,1.9274134 -0.9030434,1.9373802 -0.8940641,1.9466014 -0.885164,1.9552151 -0.8672152,1.9712028 -0.8483115,1.9864673 -0.8381921,1.9941339 -0.8274575,2.001954 -0.8159815,2.0100001 -0.803643,2.0183211 -0.790326,2.026943 -0.7759191,2.0358714 -0.760315,2.0450947 -0.7434091,2.0545873 -0.7250989,2.0643122 -0.7052838,2.0742232 -0.6838658,2.0842653 -0.6607499,2.0943757 -0.6358448,2.1044845 -0.6090636,2.1145146 -0.5803241,2.1243839 -0.549549,2.1340058 -0.5166654,2.1432915 -0.4816054,2.1521514 -0.4443058,2.160497 -0.4247977,2.1644498 -0.4047082,2.1682419 -0.3840308,2.1718632 -0.3627592,2.1753037 -0.3408878,2.1785539 -0.318411,2.1816046 -0.2953237,2.1844471 -0.2716212,2.1870729 -0.2472991,2.1894745 -0.2223535,2.1916443 -0.1967809,2.1935758 -0.170578,2.1952628 -0.1437421,2.1967 -0.1162708,2.1978825 -0.0881623,2.1988065 -0.059415,2.1994688 -0.0300278,2.1998671 -0,2.2 0,2.2 0.0300278,2.1998671 0.059415,2.1994688 0.0881623,2.1988065 0.1162708,2.1978825 0.1437421,2.1967 0.170578,2.1952628 0.1967809,2.1935758 0.2223535,2.1916443 0.2472991,2.1894745 0.2716212,2.1870729 0.2953237,2.1844471 0.318411,2.1816046 0.3408878,2.1785539 0.3627592,2.1753037 0.3840308,2.1718632 0.4047082,2.1682419 0.4247977,2.1644498 0.4443058,2.160497 0.4816054,2.1521514 0.5166654,2.1432915 0.549549,2.1340058 0.5803241,2.1243839 0.6090636,2.1145146 0.6358448,2.1044845 0.6607499,2.0943757 0.6838658,2.0842653 0.7052838,2.0742232 0.7250989,2.0643122 0.7434091,2.0545873 0.760315,2.0450947 0.7759191,2.0358714 0.790326,2.026943 0.803643,2.0183211 0.8159815,2.0100001 0.8274575,2.001954 0.8381921,1.9941339 0.8483115,1.9864673 0.8672152,1.9712028 0.885164,1.9552151 0.8940641,1.9466014 0.9030434,1.9373802 0.9121787,1.9274134 0.9215265,1.9165777 0.93112,1.9047723 0.9409676,1.8919231 0.9510558,1.8779805 0.9613525,1.8629162 0.9718108,1.846719 0.9823726,1.8293916 0.9929719,1.8109474 1.0035358,1.7914103 1.0139863,1.7708146 1.024241,1.7492051 1.034214,1.7266373 1.0438178,1.7031774 1.0529652,1.6789011 1.0615714,1.6538922 1.0695573,1.6282414 1.0768514,1.6020445 1.0833923,1.5754012 1.0891299,1.5484145 1.0940261,1.5211893 1.0980556,1.4938321 1.1012064,1.4664502 1.10348,1.4391508 1.1048909,1.41204 1.1054648,1.3852215 1.1052364,1.3587956 1.1042481,1.3328575 1.1025478,1.3074966 1.1001876,1.2827952 1.0972225,1.2588273 1.0937094,1.2356586 1.0897058,1.213345 1.0852687,1.1919317 1.0804529,1.1714526 1.07531,1.1519282 1.0698859,1.1333643 1.0642195,1.1157507 1.0583409,1.099059 1.0522701,1.0832423 1.0460159,1.0682343 1.0395749,1.0539494 1.0260525,1.0271075 1.0114165,1.0016617 0.9952756,0.9764403 0.9773229,0.9504543 0.9676308,0.936972 0.9574698,0.9231036 0.9358251,0.8941329 0.912622,0.8635029 0.8881735,0.8313094 0.8628597,0.7977545 0.8371134,0.7631149 0.8113876,0.7276787 0.7861165,0.6916706 0.7616871,0.6551999 0.7384278,0.6182405 0.7166012,0.5806233 0.6964083,0.5420518 0.6869727,0.5222883 0.6779976,0.5021327 0.6694947,0.4815249 0.6614734,0.4604021 0.6539407,0.4386989 0.6469018,0.416348 0.6403599,0.3932814 0.6343166,0.3694306 0.6287722,0.3447276 0.6237256,0.3191055 0.619175,0.2924996 0.6151177,0.2648477 0.6115503,0.2360912 0.6084694,0.2061757 0.6058711,0.1750517 0.6037517,0.142675 0.6021076,0.1090082 0.6009358,0.0740204 0.6002338,0.0376891 0.6,-0 0.6,0 0.6002821,-0.037799 0.6011274,-0.0744569 0.6025334,-0.1099781 0.6044958,-0.1443703 0.6070088,-0.1776437 0.610065,-0.2098115 0.6136558,-0.2408893 0.617771,-0.2708953 0.6223993,-0.29985 0.6275283,-0.3277762 0.6331443,-0.354699 0.6392326,-0.3806453 0.6457777,-0.4056442 0.652763,-0.4297265 0.6601712,-0.4529249 0.6679843,-0.4752737 0.6761835,-0.4968087 0.6847495,-0.5175672 0.6936625,-0.537588 0.7029022,-0.5569111 0.7124479,-0.5755774 0.7222785,-0.5936293 0.7427093,-0.628063 0.7640227,-0.6605675 0.7860467,-0.6915098 0.8086109,-0.7212652 0.8315474,-0.7502123 0.8778764,-0.8071797 0.9009404,-0.8359187 0.9237161,-0.8652714 0.9460339,-0.8955326 0.9677202,-0.9269595 0.9885957,-0.9597629 1.0084733,-0.994099 1.0271566,-1.0300609 1.0444404,-1.0676754 1.0601124,-1.106901 1.0672766,-1.1270872 1.0739575,-1.1476321 1.0801289,-1.1685143 1.0857655,-1.1897097 1.0908431,-1.2111918 1.0953385,-1.2329322 1.0992304,-1.2549008 1.1024988,-1.2770658 1.105126,-1.2993945 1.1070963,-1.3218531 1.1083964,-1.3444073 1.1090155,-1.3670224 1.1089455,-1.3896636 1.1081815,-1.4122965 1.1067216,-1.4348871 1.1045674,-1.4574024 1.1017245,-1.4798106 1.0982029,-1.5020815 1.0940168,-1.5241868 1.0891854,-1.5461004 1.083732,-1.5677985 1.0776841,-1.5892591 1.0639328,-1.6313925 1.0482169,-1.6723706 1.0308558,-1.7120957 1.0121781,-1.7504959 0.9924994,-1.7875206 0.9721008,-1.8231359 0.9512099,-1.8573207 0.9299789,-1.8900626 0.9084615,-1.9213531 0.8865906,-1.9511832 0.8641597,-1.9795394 0.840807,-2.0064 0.8160169,-2.0317341 0.8028853,-2.0438167 0.7891435,-2.0555025 0.7746947,-2.0667856 0.7594374,-2.0776598 0.7432657,-2.0881187 0.7260703,-2.0981556 0.7077392,-2.1077637 0.6881581,-2.1169359 0.6672118,-2.1256653 0.6447845,-2.1339446 0.6207606,-2.1417669 0.5950256,-2.149125 0.5674668,-2.1560121 0.5379742,-2.1624212 0.5064411,-2.1683459 0.4727647,-2.1737799 0.4368474,-2.1787169 0.4180193,-2.1809973 0.3985968,-2.1831514 0.3785695,-2.1851785 0.3579272,-2.187078 0.3366604,-2.1888492 0.3147599,-2.1904918 0.2922172,-2.192005 0.2690242,-2.1933884 0.2451735,-2.1946415 0.2206582,-2.1957639 0.195472,-2.1967552 0.1696093,-2.1976151 0.1430652,-2.1983433 0.1158354,-2.1989394 0.0879164,-2.1994033 0.0593054,-2.1997347 0.0300003,-2.1999337 0,-2.2z" fill="none" shaper:cutDepth="0" shaper:pathType="guide" stroke="rgb(100,100,100)" transform="matrix(1,0,0,-1,1.1054648,2.2)" vector-effect="non-scaling-stroke" /></svg>